<svg xmlns="http://www.w3.org/2000/svg" data-name="Layer 1" viewBox="0 0 100 125" x="0px" y="0px"><title>Artboard 3</title><path d="M26,29H40V71H32v6H54V71H46V29H60v6h6V26a3,3,0,0,0-3-3H23a3,3,0,0,0-3,3v9h6Z"/><path d="M65,44v8H57v6h8V68a9,9,0,0,0,9,9h6V71H74a3,3,0,0,1-3-3V58h8V52H71V44Z"/><text x="0" y="115" fill="#000000" font-size="5px" font-weight="bold" font-family="'Helvetica Neue', Helvetica, Arial-Unicode, Arial, Sans-serif">Created by Gregor Cresnar</text><text x="0" y="120" fill="#000000" font-size="5px" font-weight="bold" font-family="'Helvetica Neue', Helvetica, Arial-Unicode, Arial, Sans-serif">from the Noun Project</text></svg>